{"title":"The Raid 2 2014 BRRIP x264 AC3 TiTAN","uid":10400068,"size":1696356022,"categoryP":"video","categoryS":"movies","magnet":"?xt=urn:btih:6c63fea3cb7d20b18c11de0fd2c0cdbd855f936b&amp;dn=The+Raid+2+2014+BRRIP+x264+AC3+TiTAN&amp;tr=udp%3A%2F%2Ftracker.openbittorrent.com%3A80&amp;tr=udp%3A%2F%2Fopen.demonii.com%3A1337&amp;tr=udp%3A%2F%2Ftracker.coppersurfer.tk%3A6969&amp;tr=udp%3A%2F%2Fexodus.desync.com%3A6969","seeders":3,"leechers":2,"uploader":"xxxlavalxxx","files":-1,"time":1403346687,"description":"[IMG]http://i.imgur.com/lPHEqEG.jpg[/IMG]\n\n &lt;a href=&quot;\nhttp://www.imdb.com/title/tt2265171/&quot; rel=&quot;nofollow&quot; target=&quot;_NEW&quot;&gt;\nhttp://www.imdb.com/title/tt2265171/&lt;/a&gt;\n\n\nOnly a short time after the first raid, Rama goes undercover with the thugs of Jakarta and plans to bring down the syndicate and uncover the corruption within his police force.\n\nDirector: Gareth Evans\nWriter: Gareth Evans\nStars: Iko Uwais, Yayan Ruhian, Arifin Putra \nGenres: Action | Crime | Thriller\nCountry: Indonesia | USA\nLanguage: Indonesian | Japanese | English | Arabic\n\n\nSource: BLURAY GECKOS(thx)\n\nOK, made the English track the default track , but kept the Indonesian audio and English subs for those who prefer it that way.. Enjoy\n\nGeneral\n\nFormat                                   : Matroska\nFormat version                           : Version 2\nFile size                                : 1.58 GiB\nDuration                                 : 2h 30mn\nOverall bit rate mode                    : Variable\nOverall bit rate                         : 1 503 Kbps\nEncoded date                             : UTC 2014-06-21 06:35:59\nWriting application                      : mkvmerge v7.0.0 ('Where We Going') 32bit built on Jun  9 2014 15:08:34\nWriting library                          : libebml v1.3.0 + libmatroska v1.4.1\n\n\nVideo\nID                                       : 1\nFormat                                   : AVC\nFormat/Info                              : Advanced Video Codec\nFormat profile                           : &lt;a class=&quot;__cf_email__&quot; href=&quot;/cdn-cgi/l/email-protection&quot; data-cfemail=&quot;7e361719163e324a504f&quot;&gt;[email&amp;#160;protected]&lt;/a&gt;&lt;script cf-hash='f9e31' type=&quot;text/javascript&quot;&gt;\n/* &lt;![CDATA[ */!function(){try{var t=&quot;currentScript&quot;in document?document.currentScript:function(){for(var t=document.getElementsByTagName(&quot;script&quot;),e=t.length;e--;)if(t[e].getAttribute(&quot;cf-hash&quot;))return t[e]}();if(t&amp;&amp;t.previousSibling){var e,r,n,i,c=t.previousSibling,a=c.getAttribute(&quot;data-cfemail&quot;);if(a){for(e=&quot;&quot;,r=parseInt(a.substr(0,2),16),n=2;a.length-n;n+=2)i=parseInt(a.substr(n,2),16)^r,e+=String.fromCharCode(i);e=document.createTextNode(e),c.parentNode.replaceChild(e,c)}}}catch(u){}}();/* ]]&gt; */&lt;/script&gt;\nFormat settings, CABAC                   : Yes\nFormat settings, ReFrames                : 3 frames\nCodec ID                                 : V_MPEG4/ISO/AVC\nDuration                                 : 2h 30mn\nBit rate mode                            : Variable\nBit rate                                 : 1 025 Kbps\nMaximum bit rate                         : 40.0 Mbps\nWidth                                    : 720 pixels\nHeight                                   : 304 pixels\nDisplay aspect ratio                     : 2.35:1\nFrame rate mode                          : Constant\nFrame rate                               : 23.976 fps\nColor space                              : YUV\nChroma subsampling                       : 4:2:0\nBit depth                                : 8 bits\nScan type                                : Progressive\nBits/(Pixel*Frame)                       : 0.195\nStream size                              : 1.08 GiB (68%)\nWriting library                          : x264 core 142 r2431 ac76440\n\n\nAudio #1\nID                                       : 2\nFormat                                   : AC-3\nFormat/Info                              : Audio Coding 3\nMode extension                           : CM (complete main)\nFormat settings, Endianness              : Big\nCodec ID                                 : A_AC3\nDuration                                 : 2h 30mn\nBit rate mode                            : Constant\nBit rate                                 : 320 Kbps\nChannel(s)                               : 6 channels\nChannel positions                        : Front: L C R, Side: L R, LFE\nSampling rate                            : 48.0 KHz\nBit depth                                : 16 bits\nCompression mode                         : Lossy\nStream size                              : 344 MiB (21%)\nLanguage                                 : English\nDefault                                  : Yes\nForced                                   : No\n\nAudio #2\nID                                       : 3\nFormat                                   : AC-3\nFormat/Info                              : Audio Coding 3\nMode extension                           : CM (complete main)\nFormat settings, Endianness              : Big\nCodec ID                                 : A_AC3\nDuration                                 : 2h 30mn\nBit rate mode                            : Constant\nBit rate                                 : 128 Kbps\nChannel(s)                               : 6 channels\nChannel positions                        : Front: L C R, Side: L R, LFE\nSampling rate                            : 48.0 KHz\nBit depth                                : 16 bits\nCompression mode                         : Lossy\nStream size                              : 138 MiB (9%)\nLanguage                                 : Indonesian\nDefault                                  : No\nForced                                   : No\n\nText\nID                                       : 4\nFormat                                   : UTF-8\nCodec ID                                 : S_TEXT/UTF8\nCodec ID/Info                            : UTF-8 Plain Text\nDefault                                  : No\nForced                                   : No\n\n\nscreens\n &lt;a href=&quot;\nhttp://i.imgur.com/gzFYQJd.png&quot; rel=&quot;nofollow&quot; target=&quot;_NEW&quot;&gt;\nhttp://i.imgur.com/gzFYQJd.png&lt;/a&gt; &lt;a href=&quot;\nhttp://i.imgur.com/rX6snEO.png&quot; rel=&quot;nofollow&quot; target=&quot;_NEW&quot;&gt;\nhttp://i.imgur.com/rX6snEO.png&lt;/a&gt; &lt;a href=&quot;\nhttp://i.imgur.com/Zhr0cgu.png&quot; rel=&quot;nofollow&quot; target=&quot;_NEW&quot;&gt;\nhttp://i.imgur.com/Zhr0cgu.png&lt;/a&gt; &lt;a href=&quot;\nhttp://i.imgur.com/07vmus1.png&quot; rel=&quot;nofollow&quot; target=&quot;_NEW&quot;&gt;\nhttp://i.imgur.com/07vmus1.png&lt;/a&gt; &lt;a href=&quot;\nhttp://i.imgur.com/fRETwg4.png&quot; rel=&quot;nofollow&quot; target=&quot;_NEW&quot;&gt;\nhttp://i.imgur.com/fRETwg4.png&lt;/a&gt; &lt;a href=&quot;\nhttp://i.imgur.com/DugqZzV.png&quot; rel=&quot;nofollow&quot; target=&quot;_NEW&quot;&gt;\nhttp://i.imgur.com/DugqZzV.png&lt;/a&gt;","torrent":{"xt":"urn:btih:6c63fea3cb7d20b18c11de0fd2c0cdbd855f936b","amp;dn":"The+Raid+2+2014+BRRIP+x264+AC3+TiTAN","amp;tr":["udp%3A%2F%2Ftracker.openbittorrent.com%3A80","udp%3A%2F%2Fopen.demonii.com%3A1337","udp%3A%2F%2Ftracker.coppersurfer.tk%3A6969","udp%3A%2F%2Fexodus.desync.com%3A6969"],"infoHash":"6c63fea3cb7d20b18c11de0fd2c0cdbd855f936b","infoHashBuffer":{"type":"Buffer","data":[108,99,254,163,203,125,32,177,140,17,222,15,210,192,205,189,133,95,147,107]},"announce":[],"urlList":[]}}